<?xml version="1.0" standalone="no"?>
<!DOCTYPE svg PUBLIC "-//W3C//DTD SVG 20010904//EN"
 "http://www.w3.org/TR/2001/REC-SVG-20010904/DTD/svg10.dtd">
<svg version="1.0" xmlns="http://www.w3.org/2000/svg"
 width="1257.000000pt" height="1257.000000pt" viewBox="0 0 1257.000000 1257.000000"
 preserveAspectRatio="xMidYMid meet">
<metadata>
Created by potrace 1.14, written by Peter Selinger 2001-2017
</metadata>
<g transform="translate(0.000000,1257.000000) scale(0.100000,-0.100000)"
fill="#000000" stroke="none">
<path d="M5921 10947 c-14 -7 -41 -47 -66 -97 -50 -98 -152 -312 -185 -385
-12 -27 -46 -99 -75 -160 -29 -60 -66 -137 -80 -170 -15 -33 -49 -107 -77
-165 -96 -200 -136 -285 -163 -345 -15 -33 -59 -124 -96 -202 -38 -78 -69
-145 -69 -147 0 -3 -32 -72 -71 -153 -124 -259 -137 -286 -179 -378 -49 -104
-96 -205 -170 -360 -29 -60 -68 -144 -87 -185 -20 -41 -64 -135 -99 -208 -35
-73 -64 -135 -64 -137 0 -3 -32 -71 -71 -152 -97 -202 -151 -317 -184 -388
-32 -70 -74 -158 -179 -378 -42 -87 -76 -161 -76 -164 0 -3 -27 -60 -59 -127
-33 -67 -96 -200 -141 -296 -45 -96 -106 -224 -135 -285 -72 -149 -105 -230
-105 -258 0 -48 68 -78 107 -46 9 8 29 43 46 79 16 36 53 115 82 175 71 147
140 294 181 382 19 40 54 114 78 165 24 51 62 131 84 178 98 210 128 273 183
388 32 67 59 124 59 127 0 2 29 64 64 137 92 193 126 267 126 275 0 3 6 14 13
22 8 9 24 41 37 71 24 58 82 181 206 438 41 84 74 155 74 157 0 2 26 60 59
127 32 68 68 146 81 173 12 28 46 100 75 160 29 61 69 144 88 185 67 143 130
276 188 396 33 67 59 124 59 127 0 4 43 95 180 382 21 44 49 105 63 135 13 30
51 111 84 180 79 163 136 283 189 399 43 92 45 94 64 76 16 -15 90 -154 90
-171 0 -4 15 -37 169 -358 45 -93 81 -171 81 -173 0 -3 34 -74 75 -158 41 -85
75 -157 75 -160 0 -3 31 -69 69 -148 38 -78 78 -164 90 -192 13 -27 26 -57 31
-65 12 -20 33 -63 63 -130 14 -30 49 -107 79 -170 31 -63 72 -151 93 -195 86
-182 130 -276 181 -383 30 -62 54 -115 54 -118 0 -3 33 -73 73 -157 92 -190
102 -216 91 -227 -6 -6 -286 -11 -677 -12 l-666 -3 -23 -23 -23 -23 0 -2088
c0 -1755 2 -2091 14 -2104 8 -11 28 -17 52 -17 73 0 69 -45 69 698 0 367 4
673 8 680 7 10 228 13 1131 12 1349 0 1319 -2 1591 97 136 49 210 89 368 198
55 38 175 153 241 230 42 50 131 185 161 245 13 25 26 47 30 50 8 6 73 192 90
259 22 84 31 146 39 261 21 306 -54 608 -212 857 -15 24 -27 47 -27 52 0 5 -4
11 -9 13 -4 2 -36 37 -70 80 -186 232 -462 408 -756 481 -91 23 -317 51 -348
43 -63 -15 -86 -75 -44 -113 18 -17 41 -22 122 -27 139 -9 265 -37 386 -85 89
-36 236 -112 273 -142 6 -5 40 -32 76 -61 237 -192 385 -439 454 -758 12 -54
17 -126 17 -245 0 -173 -4 -199 -53 -385 -23 -88 -111 -268 -176 -360 -89
-126 -278 -299 -404 -370 -117 -65 -182 -92 -328 -133 -30 -8 -75 -21 -100
-28 -60 -17 -2409 -26 -2440 -9 -20 11 -20 21 -20 1285 0 1250 0 1274 19 1285
28 14 1285 14 1312 -1 12 -6 49 -70 86 -147 36 -75 94 -197 129 -270 35 -73
64 -135 64 -138 0 -2 27 -60 59 -127 155 -321 211 -439 211 -444 0 -3 24 -55
54 -117 30 -61 71 -147 91 -191 44 -96 105 -224 190 -400 71 -146 94 -170 141
-144 31 16 47 53 38 83 -4 11 -37 84 -74 161 -37 77 -81 169 -98 205 -55 119
-133 284 -172 365 -35 73 -54 114 -152 325 -17 36 -61 130 -99 208 -38 79 -69
146 -69 148 0 2 -31 68 -69 146 -85 176 -146 306 -178 378 -14 30 -54 116 -90
190 -35 74 -71 149 -79 165 -14 30 -107 228 -169 360 -19 39 -53 113 -78 165
-147 313 -194 414 -244 520 -25 52 -70 145 -99 207 -30 61 -54 113 -54 116 0
3 -35 79 -79 169 -112 232 -165 344 -196 413 -29 65 -77 166 -161 340 -29 61
-69 146 -89 190 -20 44 -64 137 -98 207 -52 107 -67 129 -91 138 -16 5 -29 10
-30 10 -1 0 -12 -6 -25 -13z"/>
<path d="M5797 2447 c-62 -157 -86 -217 -97 -242 -4 -11 -18 -45 -30 -75 -11
-30 -25 -64 -29 -75 -5 -11 -17 -40 -27 -65 -9 -25 -26 -64 -36 -87 -10 -23
-18 -48 -18 -55 0 -8 -4 -18 -8 -24 -5 -5 -17 -31 -27 -59 -9 -27 -23 -63 -31
-80 -29 -68 -44 -108 -44 -122 0 -20 90 -14 100 7 4 8 15 33 24 55 10 22 24
53 32 68 8 16 14 35 14 43 0 8 9 31 20 51 11 21 20 43 20 50 0 27 43 33 238
33 l199 0 38 -87 c20 -49 42 -101 49 -118 42 -103 48 -110 99 -113 l49 -3 -7
33 c-4 18 -13 43 -21 55 -8 12 -14 30 -14 39 0 9 -6 28 -14 42 -8 15 -21 47
-31 72 -9 25 -23 59 -30 75 -7 17 -20 50 -30 75 -9 25 -23 59 -30 75 -13 31
-28 68 -66 170 -13 33 -27 64 -31 70 -4 5 -8 15 -8 23 0 7 -8 32 -19 55 -10
23 -36 86 -57 140 l-38 97 -46 0 -45 0 -48 -123z m111 -49 c7 -13 16 -36 21
-53 5 -16 19 -55 31 -85 12 -30 25 -66 30 -80 5 -14 18 -50 30 -80 31 -80 40
-112 34 -121 -8 -13 -321 -11 -329 2 -7 10 1 36 31 104 25 57 81 210 99 273
20 66 34 76 53 40z"/>
<path d="M6990 2060 l0 -510 44 0 c25 0 48 6 53 13 4 6 8 95 8 197 0 102 4
191 8 198 6 8 44 12 130 12 98 0 134 4 181 20 147 52 207 126 214 265 7 130
-26 204 -114 258 -67 41 -126 50 -331 54 l-193 4 0 -511z m359 409 c97 -24
140 -57 165 -132 17 -50 18 -63 7 -112 -16 -71 -66 -127 -135 -149 -59 -19
-271 -23 -282 -5 -3 6 -8 93 -9 193 -2 231 -3 228 103 225 42 -2 110 -11 151
-20z"/>
<path d="M3630 1015 c-19 -7 -47 -16 -61 -19 -39 -9 -116 -82 -140 -134 -18
-39 -22 -66 -22 -157 -1 -93 2 -116 20 -150 53 -100 153 -155 282 -155 41 0
88 4 105 10 17 5 43 12 59 15 l27 5 0 145 0 145 -96 0 c-93 0 -95 -1 -92 -22
3 -20 10 -23 48 -26 93 -5 90 -2 90 -97 0 -115 -9 -125 -124 -125 -122 0 -183
31 -241 125 -29 47 -28 215 3 272 22 43 62 78 119 107 39 19 161 22 210 4 24
-9 39 -9 50 -2 22 14 28 33 11 38 -7 2 -37 11 -67 20 -64 19 -133 20 -181 1z"/>
<path d="M4697 1023 c-4 -3 -7 -145 -7 -315 l0 -308 166 0 165 0 -3 23 c-3 21
-7 22 -113 24 -60 2 -120 5 -132 8 l-23 5 0 279 c0 245 -2 280 -16 285 -20 8
-29 8 -37 -1z"/>
<path d="M5925 1012 c-89 -33 -109 -50 -156 -127 -22 -37 -24 -50 -24 -170 0
-114 3 -135 22 -170 53 -98 154 -151 269 -142 113 8 181 54 229 154 21 46 25
67 25 151 0 67 -5 112 -17 145 -20 57 -91 134 -130 143 -16 4 -33 11 -40 16
-25 20 -126 19 -178 0z m210 -70 c22 -15 52 -50 67 -77 25 -45 28 -60 28 -147
0 -137 -32 -204 -118 -248 -35 -18 -55 -21 -110 -18 -92 5 -144 39 -179 114
-23 51 -25 65 -21 162 3 99 5 110 33 152 45 66 93 90 185 90 65 -1 80 -4 115
-28z"/>
<path d="M7082 1022 c-9 -7 -12 -76 -10 -313 l3 -304 120 -3 c192 -5 264 30
286 139 14 69 -5 120 -57 151 -43 25 -62 56 -39 63 8 3 22 7 30 10 27 8 55 68
55 115 0 98 -96 150 -275 150 -55 0 -106 -4 -113 -8z m277 -69 c58 -34 69
-108 23 -163 -28 -33 -31 -34 -119 -38 -130 -6 -133 -4 -133 112 0 51 3 96 7
99 3 4 48 7 99 7 69 0 100 -4 123 -17z m24 -285 c62 -60 55 -155 -15 -198 -26
-16 -50 -20 -120 -20 -47 0 -93 3 -102 6 -13 5 -16 25 -16 118 0 62 3 116 7
119 3 4 53 7 109 7 102 0 103 0 137 -32z"/>
<path d="M8405 974 c-14 -31 -25 -60 -25 -65 0 -5 -4 -17 -9 -27 -5 -9 -20
-44 -32 -77 -13 -33 -27 -64 -31 -70 -4 -5 -8 -15 -8 -23 0 -8 -7 -28 -14 -45
-8 -18 -31 -75 -51 -127 -20 -52 -40 -103 -46 -113 -7 -13 -5 -19 7 -24 25 -9
48 10 62 53 7 21 16 48 22 59 5 11 12 30 15 42 13 47 29 53 149 53 75 0 117
-4 128 -13 8 -6 25 -39 38 -72 43 -115 49 -125 75 -125 14 0 25 3 25 8 0 12
-35 100 -43 108 -4 4 -7 14 -7 23 -1 9 -9 34 -20 56 -11 22 -19 46 -20 53 0 7
-4 20 -10 30 -5 9 -16 35 -25 57 -9 22 -23 55 -31 73 -8 18 -14 37 -14 43 0 6
-9 31 -20 57 -61 142 -77 151 -115 66z m85 -122 c13 -42 30 -86 36 -97 7 -11
15 -34 19 -51 7 -38 -7 -44 -102 -44 -113 0 -114 3 -48 155 8 17 19 47 25 67
10 32 20 45 40 47 3 0 16 -34 30 -77z"/>
<path d="M9453 1023 c-10 -4 -13 -75 -13 -314 l0 -309 166 0 165 0 -3 23 c-3
21 -8 22 -133 27 l-130 5 -3 281 c-2 258 -4 282 -20 286 -9 3 -23 3 -29 1z"/>
</g>
</svg>
